<?xml version="1.0" encoding="UTF-8"?>
<svg xmlns="http://www.w3.org/2000/svg" xmlns:xlink="http://www.w3.org/1999/xlink" width="16px" height="16px" viewBox="0 0 16 16" version="1.1">
<g id="surface4051">
<path style=" stroke:none;fill-rule:nonzero;fill:rgb(14.117648%,12.156863%,19.215687%);fill-opacity:1;" d="M 2.757812 0.0195312 C 1.230469 0.0273438 0 1.183594 0 2.710938 L 0 8.222656 C 0 9.75 1.230469 10.980469 2.757812 10.980469 L 6.066406 10.980469 L 6.066406 9 L 2.863281 8.988281 C 2.371094 8.988281 1.972656 8.636719 1.972656 8.140625 L 1.972656 2.882812 C 1.972656 2.386719 2.371094 1.988281 2.863281 1.988281 L 12 1.992188 C 12 1.132812 11.101562 -0.0078125 10 -0.0078125 Z M 6.066406 12.132812 C 1.398438 12.132812 1.851562 13.066406 1.851562 13.066406 C 1.851562 14 2.785156 14 2.785156 14 L 6.066406 14 Z M 6.066406 12.132812 "/>
<path style=" stroke:none;fill-rule:evenodd;fill:rgb(14.117648%,12.156863%,19.215687%);fill-opacity:1;" d="M 10.957031 4 C 8.8125 4 7.058594 5.757812 7.058594 7.902344 L 7.058594 12.097656 C 7.058594 14.242188 8.8125 16 10.957031 16 L 12.097656 16 C 14.242188 16 16 14.242188 16 12.097656 L 16 7.902344 C 16 5.757812 14.242188 4 12.097656 4 Z M 10.957031 6 L 12.097656 6 C 13.171875 6 14 6.832031 14 7.902344 L 14 12.097656 C 14 13.167969 13.171875 14 12.097656 14 L 10.957031 14 C 9.886719 14 9.058594 13.167969 9.058594 12.097656 L 9.058594 7.902344 C 9.058594 6.832031 9.886719 6 10.957031 6 Z M 10.957031 6 "/>
<path style=" stroke:none;fill-rule:evenodd;fill:rgb(14.117648%,12.156863%,19.215687%);fill-opacity:1;" d="M 11.5 7 C 11.777344 7 12 7.222656 12 7.5 L 12 9.5 C 12 9.777344 11.777344 10 11.5 10 C 11.222656 10 11 9.777344 11 9.5 L 11 7.5 C 11 7.222656 11.222656 7 11.5 7 Z M 11.5 7 "/>
</g>
</svg>
