<?xml version="1.0" encoding="UTF-8"?>
<svg height="16px" viewBox="0 0 16 16" width="16px" xmlns="http://www.w3.org/2000/svg">
    <path d="m 5 2 c -0.441406 0 -0.832031 0.289062 -0.957031 0.710938 l -1.585938 5.289062 h 2.085938 l 0.457031 -1.519531 l 0.457031 1.519531 h 2.085938 l -1.585938 -5.289062 c -0.125 -0.421876 -0.515625 -0.710938 -0.957031 -0.710938 z m -3.441406 9 l -0.515625 1.710938 c -0.15625 0.53125 0.140625 1.085937 0.671875 1.246093 c 0.527344 0.160157 1.085937 -0.140625 1.242187 -0.671875 l 0.6875 -2.285156 z m 4.796875 0 l 0.6875 2.285156 c 0.160156 0.53125 0.714843 0.828125 1.246093 0.671875 c 0.527344 -0.15625 0.828126 -0.714843 0.667969 -1.246093 l -0.511719 -1.710938 z m 0 0" fill="#222222"/>
    <path d="m 0 9 c 0 0.550781 0.449219 1 1 1 h 14 c 0.550781 0 1 -0.449219 1 -1 s -0.449219 -1 -1 -1 h -14 c -0.550781 0 -1 0.449219 -1 1 z m 0 0" fill="#e01b24" class="error"/>
    <path d="m 11 6 c -0.550781 0 -1 0.449219 -1 1 s 0.449219 1 1 1 h 3.824219 c -0.414063 -1.160156 -1.527344 -2 -2.824219 -2 z m -1.949219 5 c -0.035156 0.160156 -0.050781 0.328125 -0.050781 0.5 c 0 1.367188 1.132812 2.5 2.5 2.5 h 1 c 1.367188 0 2.5 -1.132812 2.5 -2.5 v -0.5 h -2 v 0.5 c 0 0.289062 -0.210938 0.5 -0.5 0.5 h -1 c -0.289062 0 -0.5 -0.210938 -0.5 -0.5 s 0.210938 -0.5 0.5 -0.5 z m 0 0" fill="#222222"/>
</svg>
