<?xml version="1.0" encoding="UTF-8"?>
<svg height="16px" viewBox="0 0 16 16" width="16px" xmlns="http://www.w3.org/2000/svg">
    <g fill="#222222">
        <path d="m 4.5 2 c -0.410156 0 -0.78125 0.253906 -0.929688 0.636719 l -3.4999995 9 c -0.2031245 0.515625 0.0507815 1.09375 0.5664065 1.292969 c 0.515625 0.203124 1.09375 -0.050782 1.296875 -0.566407 l 2.566406 -6.601562 l 2.570312 6.601562 c 0.199219 0.515625 0.777344 0.769531 1.292969 0.566407 c 0.515625 -0.199219 0.769531 -0.777344 0.570313 -1.292969 l -3.5 -9 c -0.152344 -0.382813 -0.519532 -0.636719 -0.933594 -0.636719 z m 0 0"/>
        <path d="m 2 9 c -0.550781 0 -1 0.449219 -1 1 s 0.449219 1 1 1 h 5 c 0.550781 0 1 -0.449219 1 -1 s -0.449219 -1 -1 -1 z m 0 0"/>
        <path d="m 11 5 c -0.550781 0 -1 0.449219 -1 1 s 0.449219 1 1 1 h 2 c 0.5625 0 1 0.4375 1 1 h -2.5 c -1.367188 0 -2.5 1.132812 -2.5 2.5 s 1.132812 2.5 2.5 2.5 h 2 c 1.367188 0 2.5 -1.132812 2.5 -2.5 v -2.5 c 0 -1.644531 -1.355469 -3 -3 -3 z m 0.5 5 h 2.5 v 0.5 c 0 0.289062 -0.210938 0.5 -0.5 0.5 h -2 c -0.289062 0 -0.5 -0.210938 -0.5 -0.5 s 0.210938 -0.5 0.5 -0.5 z m 0 0"/>
    </g>
</svg>
