<?xml version="1.0" encoding="UTF-8" standalone="no"?>
<svg
   height="16"
   viewBox="0 0 16 16"
   width="16"
   version="1.1"
   id="svg18"
   sodipodi:docname="lang-class-symbolic.svg"
   inkscape:export-filename="lang-property-symbolic.png"
   inkscape:export-xdpi="96"
   inkscape:export-ydpi="96"
   xmlns:inkscape="http://www.inkscape.org/namespaces/inkscape"
   xmlns:sodipodi="http://sodipodi.sourceforge.net/DTD/sodipodi-0.dtd"
   xmlns="http://www.w3.org/2000/svg"
   xmlns:svg="http://www.w3.org/2000/svg">
  <defs
     id="defs18" />
  <sodipodi:namedview
     id="namedview18"
     pagecolor="#ffffff"
     bordercolor="#000000"
     borderopacity="0.25"
     inkscape:showpageshadow="2"
     inkscape:pageopacity="0.0"
     inkscape:pagecheckerboard="0"
     inkscape:deskcolor="#d1d1d1">
    <inkscape:page
       x="0"
       y="0"
       width="16"
       height="16"
       id="page2"
       margin="0"
       bleed="0" />
  </sodipodi:namedview>
  <filter
     id="a"
     height="1"
     width="1"
     x="0"
     y="0">
    <feColorMatrix
       in="SourceGraphic"
       type="matrix"
       values="0 0 0 0 1 0 0 0 0 1 0 0 0 0 1 0 0 0 1 0"
       id="feColorMatrix1" />
  </filter>
  <mask
     id="b">
    <g
       filter="url(#a)"
       id="g1">
      <path
         d="M 0,0 H 16 V 16 H 0 Z"
         fill-opacity="0.3"
         id="path1" />
    </g>
  </mask>
  <clipPath
     id="c">
    <path
       d="M 0,0 H 800 V 800 H 0 Z"
       id="path2" />
  </clipPath>
  <mask
     id="d">
    <g
       filter="url(#a)"
       id="g3">
      <path
         d="M 0,0 H 16 V 16 H 0 Z"
         fill-opacity="0.35"
         id="path3" />
    </g>
  </mask>
  <clipPath
     id="e">
    <path
       d="M 0,0 H 800 V 800 H 0 Z"
       id="path4" />
  </clipPath>
  <mask
     id="f">
    <g
       filter="url(#a)"
       id="g5">
      <path
         d="M 0,0 H 16 V 16 H 0 Z"
         fill-opacity="0.35"
         id="path5" />
    </g>
  </mask>
  <clipPath
     id="g">
    <path
       d="M 0,0 H 800 V 800 H 0 Z"
       id="path6" />
  </clipPath>
  <mask
     id="h">
    <g
       filter="url(#a)"
       id="g7">
      <path
         d="M 0,0 H 16 V 16 H 0 Z"
         fill-opacity="0.35"
         id="path7" />
    </g>
  </mask>
  <clipPath
     id="i">
    <path
       d="M 0,0 H 800 V 800 H 0 Z"
       id="path8" />
  </clipPath>
  <mask
     id="j">
    <g
       filter="url(#a)"
       id="g9">
      <path
         d="M 0,0 H 16 V 16 H 0 Z"
         fill-opacity="0.35"
         id="path9" />
    </g>
  </mask>
  <clipPath
     id="k">
    <path
       d="M 0,0 H 800 V 800 H 0 Z"
       id="path10" />
  </clipPath>
  <path
     d="M 11,0 C 9.890625,0 9,0.914062 9,2.015625 V 6.792969 L 8.148438,7.644531 C 7.957031,7.835938 7.949219,8.140625 8.132812,8.335938 L 9,9.289062 v 4.664063 c 0,0.65625 0.234375,1.207031 0.625,1.5625 0.386719,0.351563 0.894531,0.496094 1.390625,0.484375 l -0.03125,-1 c -0.277344,0.0078 -0.519531,-0.07422 -0.6875,-0.226562 C 10.128906,14.621094 10,14.386719 10,13.953125 V 9.09375 C 10,8.96875 9.953125,8.847656 9.871094,8.757812 L 9.191406,8.015625 9.855469,7.351562 C 9.949219,7.257812 10,7.132812 10,7 V 2.015625 C 10,1.429688 10.421875,1 11,1 Z m 0,0"
     id="path16"
     style="fill:#2e3436" />
  <path
     d="m 3.9999578,7 c 1.332031,0 2.273438,0.8125 2.644531,1.550781 C 7.0116768,9.289062 6.9999578,10 6.9999578,10 v 1 c 0,0 0.011719,0.707031 -0.355469,1.445312 C 6.2733958,13.183594 5.3319888,14 3.9999578,14 h -2 v -2 h 2 c 0.664062,0 0.722656,-0.1875 0.855469,-0.449219 C 4.9843328,11.289062 4.9999578,11 4.9999578,11 v -1 c 0,0 -0.011719,-0.292969 -0.144531,-0.554688 C 4.7265198,9.183594 4.6679268,9 3.9999578,9 h -2 V 7 Z m 0,0"
     id="path17"
     style="fill:#2e3436" />
  <path
     d="m 13.015625,0 v 1 c 0.578125,0 1,0.429688 1,1.015625 V 7 c 0,0.132812 0.05078,0.257812 0.144531,0.351562 l 0.664063,0.664063 -0.679688,0.742187 C 14.0625,8.847656 14.015625,8.96875 14.015625,9.09375 v 4.859375 c 0,0.433594 -0.128906,0.667969 -0.296875,0.820313 C 13.550781,14.925781 13.308594,15.007812 13.027344,15 L 13,16 c 0.496094,0.01172 1,-0.132812 1.390625,-0.484375 0.386719,-0.355469 0.625,-0.90625 0.625,-1.5625 V 9.289062 l 0.867187,-0.953124 c 0.179688,-0.195313 0.175782,-0.5 -0.01562,-0.691407 L 15.015625,6.792969 V 2.015625 C 15.015625,0.914062 14.125,0 13.015625,0 Z m 0,0"
     id="path18"
     style="fill:#2e3436" />
  <rect
     style="fill:#2e3436;fill-opacity:1;stroke:none;stroke-width:0.886786;stroke-opacity:1"
     id="rect18"
     width="2"
     height="9"
     x="-2.5"
     y="7"
     ry="1.0797213"
     rx="0"
     transform="scale(-1,1)" />
</svg>
