<?xml version="1.0" encoding="UTF-8" standalone="no"?>
<svg
   height="16"
   viewBox="0 0 16 16"
   width="16"
   version="1.1"
   id="svg2"
   sodipodi:docname="vcs-file-added-symbolic.svg"
   xmlns:inkscape="http://www.inkscape.org/namespaces/inkscape"
   xmlns:sodipodi="http://sodipodi.sourceforge.net/DTD/sodipodi-0.dtd"
   xmlns="http://www.w3.org/2000/svg"
   xmlns:svg="http://www.w3.org/2000/svg">
  <defs
     id="defs2" />
  <sodipodi:namedview
     id="namedview2"
     pagecolor="#ffffff"
     bordercolor="#000000"
     borderopacity="0.25"
     inkscape:showpageshadow="2"
     inkscape:pageopacity="0.0"
     inkscape:pagecheckerboard="0"
     inkscape:deskcolor="#d1d1d1"
     showgrid="false">
    <inkscape:page
       x="0"
       y="0"
       width="16"
       height="16"
       id="page2"
       margin="0"
       bleed="0" />
  </sodipodi:namedview>
  <g
     fill="#222222"
     id="g2">
    <path
       d="M 3.019531,0 C 1.375,0 0.0195312,1.355469 0.0195312,3 v 10 c 0,1.644531 1.3554688,3 2.9999998,3 h 10 c 1.644531,0 3,-1.355469 3,-3 V 3 c 0,-1.644531 -1.355469,-3 -3,-3 z m 0,2 h 10 c 0.570313,0 1,0.429688 1,1 v 10 c 0,0.570312 -0.429687,1 -1,1 h -10 c -0.570312,0 -1,-0.429688 -1,-1 V 3 c 0,-0.570312 0.429688,-1 1,-1 z m 0,0"
       id="path1" />
  </g>
  <path
     d="M 11,8 C 11,9.65625 9.65625,11 8,11 6.34375,11 5,9.65625 5,8 5,6.34375 6.34375,5 8,5 c 1.65625,0 3,1.34375 3,3 z m 0,0"
     fill="#222222"
     id="path1-1" />
</svg>
