<svg version="1.2" xmlns="http://www.w3.org/2000/svg" viewBox="0 0 256 256" width="256" height="256"><style>.a{fill:#f00}.b{fill:#fff}.c{fill:none;stroke:#fff;stroke-width:16}</style><filter id="f0"><feFlood flood-color="#ffffff" flood-opacity="1" /><feBlend mode="normal" in2="SourceGraphic"/><feComposite in2="SourceAlpha" operator="in" /></filter><g filter="url(#f0)"><path class="a" d="m98 152.5c0-1.9 1.6-3.5 3.5-3.5h9c1.9 0 3.5 1.6 3.5 3.5 0 1.9-1.6 3.5-3.5 3.5h-9c-1.9 0-3.5-1.6-3.5-3.5z"/><path class="a" d="m120 152.5c0-1.9 1.6-3.5 3.5-3.5h9c1.9 0 3.5 1.6 3.5 3.5 0 1.9-1.6 3.5-3.5 3.5h-9c-1.9 0-3.5-1.6-3.5-3.5z"/><path class="a" d="m142 152.5c0-1.9 1.6-3.5 3.5-3.5h9c1.9 0 3.5 1.6 3.5 3.5 0 1.9-1.6 3.5-3.5 3.5h-9c-1.9 0-3.5-1.6-3.5-3.5z"/></g><path class="b" d="m101 137l13.2-33.3h6.5l13.2 33.3h-6.1l-3.7-8.7h-13.6l-3.7 8.7zm11.5-14.1h9.4l-4.7-12.4zm33.4-5.5q2.1 0 3.7 0.4 1.6 0.3 2.6 1 0.9 0.6 1.5 1.5 0.7 1 0.9 1.9 0.2 1 0.2 2.2v12.6h-3.6l-0.5-1.2q-2.6 1.6-6 1.6-3.6 0-5.8-1.7-2.3-1.7-2.3-4 0-1.4 0.8-2.5 0.7-1.1 1.9-1.7 1.2-0.7 3-1.1 1.8-0.4 3.6-0.5 1.8-0.2 4.1-0.2v-0.7q0-0.7-0.2-1.2-0.1-0.5-0.5-1-0.4-0.6-1.5-0.9-0.9-0.3-2.5-0.3-2.2 0-5.8 0.9l-0.8 0.2-1-3.8 0.7-0.3q3.6-1.2 7.5-1.2zm4.1 14.7v-2.8h-0.5q-3.9 0-5.9 0.5-1.9 0.5-1.9 1.6 0 0.7 1.2 1.3 1.2 0.6 2.9 0.6 2.4 0 4.2-1.2z"/><path class="c" d="m64 90c0-9.9 8.1-18 18-18h92c9.9 0 18 8.1 18 18v76c0 9.9-8.1 18-18 18h-92c-9.9 0-18-8.1-18-18z"/></svg>