<?xml version="1.0" encoding="UTF-8"?>
<svg height="16px" viewBox="0 0 16 16" width="16px" xmlns="http://www.w3.org/2000/svg" xmlns:xlink="http://www.w3.org/1999/xlink">
    <filter id="a" height="100%" width="100%" x="0%" y="0%">
        <feColorMatrix color-interpolation-filters="sRGB" values="0 0 0 0 1 0 0 0 0 1 0 0 0 0 1 0 0 0 1 0"/>
    </filter>
    <mask id="b">
        <g filter="url(#a)">
            <rect fill-opacity="0.48" height="19.2" width="19.2" x="-1.6" y="-1.6"/>
        </g>
    </mask>
    <radialGradient id="c" cx="62" cy="229.196274" gradientTransform="matrix(9.022507 0 0 6.949516 -475.273163 -1518.927856)" gradientUnits="userSpaceOnUse" r="16.015505">
        <stop offset="0" stop-color="#ffffff"/>
        <stop offset="1" stop-color="#ffffff" stop-opacity="0"/>
    </radialGradient>
    <clipPath id="d">
        <rect height="152" width="192"/>
    </clipPath>
    <path d="m 8 14 c 3.308594 0 6 -2.691406 6 -6 s -2.691406 -6 -6 -6 s -6 2.691406 -6 6 s 2.691406 6 6 6 z m 0 -14 c 4.421875 0 8 3.578125 8 8 s -3.578125 8 -8 8 s -8 -3.578125 -8 -8 s 3.578125 -8 8 -8 z m 0 0" fill="#222222"/>
    <g mask="url(#b)">
        <g clip-path="url(#d)" transform="matrix(1 0 0 1 -168 -16)">
            <path d="m 78.117188 73.953125 c -1.460938 0.011719 -2.800782 0.816406 -3.492188 2.105469 l -20 36 c -0.71875 1.25 -0.710938 2.792968 0.023438 4.035156 c 0.738281 1.242188 2.085937 1.992188 3.53125 1.960938 c 1.441406 -0.03125 2.757812 -0.839844 3.4375 -2.109376 l 20 -36 c 0.714843 -1.246093 0.707031 -2.773437 -0.015626 -4.011718 c -0.722656 -1.238282 -2.050781 -1.992188 -3.484374 -1.980469 z m 0 0" fill="url(#c)"/>
        </g>
    </g>
    <g fill="none" stroke="#222222" stroke-linecap="round" stroke-width="2">
        <path d="m 5 4.96875 v 5.96875"/>
        <path d="m 11 4.96875 v 6.0625"/>
        <path d="m 6 9 h 3.96875"/>
    </g>
</svg>
